<svg width="188" height="46" viewBox="0 0 188 46" fill="none" xmlns="http://www.w3.org/2000/svg">
<g clip-path="url(#clip0_288_852)">
<path d="M152.09 38.6349C151.749 38.5421 151.43 38.3795 151.155 38.1572L151.507 37.3656C151.756 37.5566 152.035 37.7038 152.333 37.801C152.648 37.9115 152.98 37.9683 153.315 37.9691C153.722 37.9691 154.025 37.9045 154.226 37.7731C154.317 37.7215 154.393 37.6465 154.446 37.5557C154.499 37.4649 154.527 37.3616 154.527 37.2565C154.529 37.1835 154.515 37.111 154.486 37.0441C154.457 36.9771 154.414 36.9173 154.359 36.869C154.235 36.7605 154.09 36.679 153.933 36.6297C153.761 36.5725 153.526 36.5072 153.228 36.4337C152.884 36.3565 152.546 36.2572 152.215 36.1364C151.957 36.0385 151.728 35.8782 151.548 35.6699C151.352 35.4283 151.254 35.1228 151.271 34.8126C151.268 34.5187 151.353 34.2308 151.516 33.9865C151.702 33.7214 151.96 33.516 152.26 33.3952C152.646 33.237 153.06 33.1612 153.477 33.1726C153.81 33.1722 154.141 33.2141 154.462 33.2973C154.76 33.3694 155.043 33.4914 155.3 33.658L154.979 34.4485C154.743 34.3102 154.491 34.2025 154.228 34.1279C153.981 34.056 153.725 34.0185 153.468 34.0165C153.066 34.0165 152.768 34.0844 152.573 34.2203C152.482 34.2777 152.407 34.3576 152.355 34.4524C152.304 34.5472 152.278 34.6536 152.279 34.7614C152.277 34.8337 152.291 34.9056 152.32 34.9718C152.349 35.0381 152.393 35.097 152.447 35.1444C152.572 35.2512 152.717 35.3316 152.874 35.3804C153.047 35.4372 153.281 35.5029 153.578 35.5753C153.918 35.65 154.253 35.7482 154.579 35.8692C154.836 35.969 155.065 36.129 155.247 36.3357C155.442 36.5731 155.541 36.875 155.525 37.1819C155.528 37.4746 155.442 37.7612 155.278 38.0036C155.091 38.268 154.831 38.4722 154.53 38.5915C154.142 38.7491 153.726 38.8249 153.307 38.8141C152.895 38.8149 152.485 38.7545 152.09 38.6349Z" fill="white"/>
<path d="M160.129 38.508C160.005 38.6061 159.863 38.678 159.711 38.7195C159.541 38.7669 159.366 38.7905 159.19 38.7897C158.731 38.7897 158.377 38.6694 158.126 38.4289C157.875 38.1884 157.751 37.8388 157.751 37.3801V35.366H157.063V34.5866H157.751V33.6246H158.729V34.5799H159.848V35.3593H158.729V37.3489C158.718 37.5177 158.771 37.6844 158.878 37.8154C158.934 37.8713 159.002 37.9145 159.076 37.9422C159.15 37.9698 159.229 37.9813 159.308 37.9758C159.505 37.9833 159.698 37.9223 159.855 37.8032L160.129 38.508Z" fill="white"/>
<path d="M166.158 34.552V38.7351H165.227V38.2018C165.069 38.3913 164.868 38.5405 164.641 38.6371C164.401 38.7396 164.142 38.7916 163.881 38.7896C163.323 38.7896 162.884 38.6341 162.564 38.3231C162.243 38.0121 162.083 37.5515 162.082 36.9414V34.552H163.061V36.8078C163.061 37.1841 163.145 37.4647 163.314 37.6495C163.408 37.7452 163.521 37.8196 163.646 37.8677C163.771 37.9157 163.905 37.9362 164.038 37.9279C164.192 37.9354 164.346 37.9104 164.489 37.8544C164.633 37.7983 164.763 37.7126 164.871 37.6028C165.077 37.3853 165.18 37.0731 165.18 36.6664V34.5509L166.158 34.552Z" fill="white"/>
<path d="M172.703 32.9232V38.7351H171.765V38.1895C171.605 38.3857 171.4 38.5388 171.166 38.6349C170.916 38.7365 170.649 38.7872 170.379 38.7841C170.001 38.7897 169.628 38.698 169.296 38.518C168.977 38.3426 168.716 38.0805 168.54 37.762C168.353 37.4172 168.259 37.0297 168.267 36.6374C168.259 36.2466 168.353 35.8605 168.54 35.5174C168.716 35.2004 168.978 34.9398 169.296 34.7658C169.628 34.5852 170.001 34.4936 170.379 34.4997C170.639 34.4967 170.897 34.5443 171.138 34.64C171.365 34.7321 171.566 34.8772 171.725 35.0631V32.9232H172.703ZM171.131 37.7909C171.319 37.6828 171.473 37.5239 171.576 37.3322C171.684 37.1186 171.74 36.8825 171.74 36.643C171.74 36.4035 171.684 36.1674 171.576 35.9538C171.473 35.7627 171.319 35.6042 171.131 35.4962C170.936 35.3903 170.718 35.3348 170.497 35.3348C170.275 35.3348 170.057 35.3903 169.863 35.4962C169.675 35.6042 169.521 35.7627 169.418 35.9538C169.31 36.1674 169.253 36.4035 169.253 36.643C169.253 36.8825 169.31 37.1186 169.418 37.3322C169.52 37.5239 169.674 37.6828 169.863 37.7909C170.058 37.8962 170.275 37.9513 170.497 37.9513C170.718 37.9513 170.936 37.8962 171.131 37.7909Z" fill="white"/>
<path d="M175.207 33.6936C175.15 33.6398 175.104 33.5749 175.073 33.5029C175.042 33.4309 175.026 33.3534 175.026 33.275C175.026 33.1966 175.042 33.119 175.073 33.047C175.104 32.975 175.15 32.9101 175.207 32.8563C175.327 32.7438 175.487 32.6831 175.652 32.6871C175.815 32.6827 175.974 32.7404 176.096 32.8485C176.154 32.8982 176.201 32.9601 176.232 33.0298C176.263 33.0995 176.278 33.1753 176.277 33.2516C176.278 33.3321 176.264 33.4122 176.234 33.4869C176.203 33.5616 176.158 33.6293 176.101 33.6858C176.042 33.7445 175.971 33.7905 175.894 33.8209C175.816 33.8514 175.734 33.8656 175.65 33.8628C175.486 33.8666 175.327 33.8059 175.207 33.6936ZM175.16 34.552H176.138V38.7351H175.16V34.552Z" fill="white"/>
<path d="M179.331 38.5158C178.999 38.3407 178.724 38.076 178.535 37.752C178.349 37.4131 178.251 37.0323 178.251 36.6453C178.251 36.2582 178.349 35.8775 178.535 35.5385C178.725 35.2166 179 34.9537 179.331 34.7792C179.686 34.5991 180.079 34.5052 180.477 34.5052C180.875 34.5052 181.268 34.5991 181.623 34.7792C181.953 34.9533 182.228 35.2163 182.417 35.5385C182.604 35.8772 182.703 36.2581 182.703 36.6453C182.703 37.0324 182.604 37.4133 182.417 37.752C182.229 38.0761 181.954 38.3408 181.623 38.5158C181.268 38.6959 180.875 38.7897 180.477 38.7897C180.079 38.7897 179.686 38.6959 179.331 38.5158ZM181.365 37.5905C181.592 37.3276 181.717 36.9917 181.717 36.6441C181.717 36.2966 181.592 35.9607 181.365 35.6978C181.249 35.5793 181.111 35.4861 180.958 35.4241C180.805 35.362 180.64 35.3323 180.475 35.337C180.31 35.3315 180.145 35.3608 179.992 35.4229C179.839 35.485 179.7 35.5787 179.585 35.6978C179.361 35.962 179.238 36.2974 179.238 36.6441C179.238 36.9908 179.361 37.3263 179.585 37.5905C179.7 37.7096 179.839 37.8032 179.992 37.8654C180.145 37.9275 180.31 37.9568 180.475 37.9513C180.64 37.9559 180.805 37.9263 180.958 37.8642C181.111 37.8021 181.249 37.7089 181.365 37.5905Z" fill="white"/>
<path d="M185.113 38.656C184.836 38.5901 184.573 38.4771 184.334 38.322L184.71 37.5771C184.919 37.7122 185.147 37.814 185.386 37.8789C185.639 37.9523 185.901 37.9898 186.165 37.9902C186.749 37.9902 187.041 37.8362 187.041 37.5282C187.043 37.4598 187.022 37.3928 186.982 37.3375C186.942 37.2823 186.884 37.2421 186.819 37.2231C186.586 37.1452 186.346 37.09 186.103 37.0583C185.818 37.0192 185.537 36.9589 185.262 36.8779C185.046 36.8109 184.851 36.688 184.698 36.5216C184.53 36.3256 184.444 36.0716 184.46 35.8135C184.456 35.6259 184.499 35.4402 184.586 35.2737C184.672 35.1073 184.8 34.9655 184.956 34.8616C185.287 34.6233 185.735 34.5045 186.298 34.5053C186.588 34.5054 186.877 34.5383 187.159 34.6033C187.406 34.653 187.644 34.7413 187.863 34.8649L187.487 35.6098C187.124 35.3981 186.711 35.2896 186.291 35.2958C186.065 35.2828 185.84 35.3272 185.637 35.425C185.572 35.4555 185.516 35.5035 185.477 35.5637C185.438 35.6239 185.416 35.6938 185.414 35.7656C185.411 35.8399 185.433 35.9131 185.476 35.9736C185.519 36.034 185.581 36.0784 185.652 36.0997C185.892 36.186 186.14 36.2479 186.392 36.2845C186.67 36.3246 186.944 36.3845 187.214 36.4637C187.426 36.5291 187.617 36.648 187.77 36.8089C187.934 36.9995 188.017 37.2469 188.001 37.4981C188.004 37.6853 187.959 37.8702 187.869 38.0348C187.78 38.1994 187.65 38.3382 187.492 38.4378C187.153 38.6724 186.691 38.79 186.107 38.7907C185.771 38.791 185.437 38.7457 185.113 38.656Z" fill="white"/>
<path d="M73.848 15.4818C73.8579 16.3899 73.715 17.2933 73.4254 18.1539C73.1514 18.9559 72.6842 19.6779 72.0652 20.256C71.4416 20.8439 70.6316 21.3022 69.6351 21.6311C68.6386 21.9599 67.4267 22.1247 65.9994 22.1254H57.3245V28.2491H52.0973V8.86597H65.995C67.423 8.86597 68.6349 9.02815 69.6306 9.35252C70.6264 9.67689 71.4364 10.133 72.0607 10.7209C72.6784 11.2971 73.1454 12.0162 73.4209 12.8152C73.7125 13.6736 73.8569 14.5752 73.848 15.4818ZM68.5641 15.5664C68.5734 15.1701 68.5089 14.7755 68.3739 14.4029C68.2489 14.0805 68.0305 13.8028 67.7466 13.6057C67.4014 13.3766 67.0131 13.2206 66.6055 13.147C66.0341 13.0389 65.4531 12.9893 64.8717 12.9989H57.3145V17.9925H64.8672C65.4474 17.9999 66.0273 17.9601 66.6011 17.8734C67.0056 17.8168 67.394 17.6774 67.7422 17.4636C68.0239 17.2826 68.243 17.019 68.3694 16.7087C68.5058 16.3438 68.5704 15.9559 68.5596 15.5664H68.5641Z" fill="white"/>
<path d="M96.2027 24.5805H85.4146L83.5973 28.248H77.7573L87.8892 8.86597H93.7236L103.855 28.248H98.021L96.2027 24.5805ZM87.2819 20.7949H94.3565L90.8331 13.6569L87.2819 20.7949Z" fill="white"/>
<path d="M110.489 28.248V8.86597H115.716V28.248H110.489Z" fill="white"/>
<path d="M149.856 28.248V14.6356L142.67 28.248H137.653L130.466 14.6356V28.248H125.239V8.86597H132.34L140.161 23.5372L147.982 8.86597H155.056V28.248H149.856Z" fill="white"/>
<path d="M180.135 24.5805H169.341L167.524 28.248H161.689L171.821 8.86597H177.656L187.786 28.248H181.951L180.135 24.5805ZM171.215 20.7949H178.29L174.766 13.6569L171.215 20.7949Z" fill="white"/>
<path d="M17.2567 1.34407C9.2168 1.52778 2.53155 6.65943 0.351701 13.7028C0.0224988 12.3589 -0.261104 8.18812 0.407309 7.00347C2.05221 4.08303 7.76097 -0.216911 14.9423 0.00910888C16.6583 0.0614385 20.0304 0.729477 20.3785 1.40642C20.4219 1.48993 18.6769 1.31178 17.2567 1.34407Z" fill="white"/>
<path d="M43.0043 28.14L42.9765 28.1289C42.9642 28.1211 42.9506 28.1155 42.9365 28.1122C42.9206 28.1105 42.9049 28.1071 42.8897 28.1021C42.8716 28.101 42.8534 28.101 42.8352 28.1021C42.8175 28.1021 42.7997 28.1021 42.7785 28.1021H42.7185H42.6551C42.6351 28.1021 42.6117 28.111 42.5895 28.1133C42.545 28.1244 42.5016 28.13 42.456 28.1444C42.3623 28.172 42.2705 28.2058 42.1813 28.2458C42.0873 28.2848 41.9959 28.3298 41.9077 28.3805C41.8145 28.4288 41.724 28.482 41.6363 28.5397L41.3727 28.7156L41.1158 28.9116L40.9868 29.0107L40.8634 29.1153L40.6142 29.3269C40.4496 29.4716 40.2939 29.6253 40.1316 29.7722L39.64 30.2343C39.4754 30.3879 39.3063 30.5316 39.1328 30.6796C38.4468 31.2601 37.7152 31.7843 36.9452 32.2473C36.5637 32.4811 36.1667 32.6927 35.7707 32.8942C35.3717 33.0949 34.9614 33.2722 34.5418 33.4253C34.9484 33.2449 35.3442 33.0412 35.7274 32.8151C36.11 32.5925 36.4859 32.3542 36.8473 32.097C37.573 31.5916 38.257 31.0286 38.8926 30.4135C39.0494 30.2577 39.2096 30.1074 39.3586 29.9459L39.8113 29.4605C39.9659 29.2968 40.116 29.1265 40.2761 28.9672L40.5208 28.729L40.6443 28.6098L40.7733 28.4985L41.0324 28.2758L41.3116 28.0632C41.4053 27.9922 41.5025 27.926 41.603 27.865C41.7041 27.7978 41.8092 27.7368 41.9177 27.6824C42.0836 27.6008 42.2558 27.5326 42.4326 27.4786C42.4364 27.4772 42.4397 27.4749 42.4422 27.4719C42.4448 27.4689 42.4466 27.4652 42.4474 27.4613C42.4481 27.4574 42.4479 27.4534 42.4467 27.4496C42.4455 27.4458 42.4433 27.4424 42.4404 27.4397C40.1594 25.3097 38.986 27.7236 35.149 27.7737C34.7275 27.7792 34.306 27.755 33.8878 27.7013L33.8233 27.6935C31.3098 27.3595 28.1757 26.0134 26.7277 24.91C25.9625 24.3233 25.3542 23.8078 24.9115 23.5361C24.7625 23.4295 24.5886 23.3632 24.4066 23.3435C23.6394 23.3559 22.8737 23.4135 22.1133 23.5161L12.2973 23.4771C11.9836 23.4779 11.6734 23.5438 11.3863 23.6704C11.0992 23.7971 10.8414 23.9818 10.629 24.213C10.4613 24.3993 10.2631 24.5556 10.0429 24.6751C9.70741 24.8511 9.33283 24.9392 8.95412 24.9312C8.38135 24.9312 7.55278 24.6729 6.86101 23.4459C6.43617 22.6899 6.11809 21.6455 5.94014 20.423C5.66247 18.3956 5.75328 16.3346 6.20817 14.3394C6.76426 12.0358 7.78523 10.5194 9.14764 9.95933C11.2152 9.10647 12.6643 9.80123 14.0634 10.4715C15.1756 11.007 16.3311 11.5604 18.0205 11.5604C19.7099 11.5604 20.8632 11.0037 21.9787 10.4715C23.3778 9.80345 24.8248 9.10647 26.8945 9.95933C28.258 10.516 29.2723 12.0358 29.834 14.3394C30.2897 16.3345 30.3801 18.3957 30.1009 20.423C29.9241 21.6478 29.606 22.6899 29.18 23.4459C29.0114 23.7539 28.8007 24.0369 28.5539 24.2865C28.5224 24.3155 28.4979 24.3511 28.4819 24.3908C28.466 24.4304 28.4591 24.4732 28.4618 24.5158C28.4644 24.5585 28.4766 24.6001 28.4973 24.6374C28.5181 24.6748 28.5469 24.7071 28.5817 24.7319C29.5381 25.4188 31.1742 26.137 32.6745 26.5645C33.0081 26.6614 33.3418 26.7404 33.6587 26.8028L33.6888 26.8106C33.8712 26.8451 34.0502 26.8774 34.2182 26.9008L34.2237 26.8908L34.286 26.8974C35.4053 26.9952 36.533 26.9049 37.6225 26.6302C37.231 24.1563 36.2045 21.9618 35.8175 21.3483C35.7839 21.289 35.7427 21.2344 35.6951 21.1857C35.2973 21.7838 34.7911 22.3019 34.2026 22.7133C35.3848 20.9942 36.1478 20.511 35.773 17.5739C35.3928 13.8829 33.8719 10.4026 31.4222 7.61808C28.9724 4.83355 25.716 2.8835 22.1066 2.03974L22.0299 2.02192L21.8464 1.98073C21.7541 1.9618 21.6629 1.94176 21.5706 1.92394L21.2369 1.86048L21.1846 1.85157C21.0656 1.83042 20.9444 1.81038 20.8232 1.79145C20.7409 1.7792 20.6575 1.76584 20.5741 1.75582C20.4907 1.7458 20.4261 1.73467 20.3516 1.72576L20.1292 1.69792C19.9802 1.68122 19.83 1.66675 19.6843 1.65227L19.4619 1.63335C19.0059 1.59772 18.5455 1.5799 18.0806 1.5799C15.4039 1.57432 12.7608 2.17616 10.3499 3.34018C10.1556 3.43371 9.96286 3.53132 9.77156 3.63301C9.64477 3.70092 9.5191 3.76996 9.39231 3.8401L9.23105 3.93251C8.9011 4.12179 8.57672 4.3222 8.2579 4.53375L8.05215 4.67626C7.98653 4.7208 7.92091 4.76533 7.85641 4.81209C7.7919 4.85886 7.71738 4.91007 7.64843 4.96018C6.3171 5.92342 5.12508 7.06618 4.10617 8.35604C4.11396 8.34379 4.11952 8.33154 4.1273 8.3193C2.93143 9.82107 1.98611 11.5066 1.32797 13.3107H1.34354C1.33798 13.324 1.33353 13.3407 1.32797 13.3552C1.32241 13.3697 1.29572 13.412 1.2757 13.4554C1.23516 13.5475 1.20242 13.6428 1.17783 13.7404C1.1656 13.785 1.15447 13.8351 1.14446 13.8874C-0.311815 18.3837 0.0747785 23.2749 2.21928 27.4859C4.36377 31.697 8.09069 34.8833 12.5809 36.3446C14.9887 32.6136 18.6055 30.6852 21.8353 29.3558C18.0294 31.616 18.2975 33.7738 19.4786 35.7311C18.8035 35.3259 17.5579 33.5043 17.5579 33.5043C17.5579 33.5043 15.8273 34.0755 13.9033 36.7176C13.8888 36.7376 13.8744 36.7566 13.861 36.7766C13.3551 37.4846 12.902 38.2288 12.5053 39.0034C11.9314 44.5014 21.297 47.267 20.0169 45.4455C18.7368 43.624 20.9989 37.4012 20.9989 37.4012C20.9989 37.4012 22.0054 39.2305 26.4574 39.2049C30.9095 39.1793 36.3913 37.0761 38.7758 35.4884C40.106 34.601 44.2978 30.6184 43.0043 28.14ZM30.8661 31.8699C30.678 31.971 30.462 32.0076 30.2512 31.974C30.0404 31.9404 29.8464 31.8385 29.699 31.6839C29.5516 31.5294 29.459 31.3307 29.4352 31.1183C29.4115 30.9059 29.458 30.6916 29.5676 30.5082C29.6772 30.3249 29.8439 30.1826 30.042 30.1031C30.2402 30.0237 30.4589 30.0116 30.6647 30.0686C30.8704 30.1256 31.0518 30.2486 31.181 30.4187C31.3102 30.5888 31.38 30.7966 31.3799 31.0103C31.3807 31.1516 31.3499 31.2912 31.2898 31.4189C31.2014 31.6114 31.0526 31.7697 30.8661 31.8699Z" fill="white"/>
<path d="M31.3776 31.0114C31.3778 31.2051 31.3207 31.3945 31.2133 31.5556C31.106 31.7167 30.9533 31.8423 30.7746 31.9165C30.596 31.9907 30.3993 32.0102 30.2096 31.9725C30.0198 31.9347 29.8455 31.8415 29.7088 31.7046C29.572 31.5676 29.4788 31.3932 29.4412 31.2032C29.4035 31.0133 29.4229 30.8164 29.4971 30.6375C29.5712 30.4586 29.6967 30.3058 29.8576 30.1983C30.0185 30.0909 30.2077 30.0337 30.4011 30.0339C30.6601 30.0339 30.9085 30.1369 31.0916 30.3202C31.2747 30.5035 31.3776 30.7522 31.3776 31.0114Z" fill="black"/>
<path d="M23.2977 17.801C23.7344 17.801 24.0885 17.4466 24.0885 17.0094C24.0885 16.5722 23.7344 16.2177 23.2977 16.2177C22.861 16.2177 22.507 16.5722 22.507 17.0094C22.507 17.4466 22.861 17.801 23.2977 17.801Z" fill="white"/>
<path d="M26.1148 17.801C26.5516 17.801 26.9056 17.4466 26.9056 17.0094C26.9056 16.5722 26.5516 16.2177 26.1148 16.2177C25.6781 16.2177 25.3241 16.5722 25.3241 17.0094C25.3241 17.4466 25.6781 17.801 26.1148 17.801Z" fill="white"/>
<path d="M24.7057 16.3914C25.1425 16.3914 25.4965 16.037 25.4965 15.5998C25.4965 15.1626 25.1425 14.8082 24.7057 14.8082C24.269 14.8082 23.915 15.1626 23.915 15.5998C23.915 16.037 24.269 16.3914 24.7057 16.3914Z" fill="white"/>
<path d="M24.7057 19.2117C25.1425 19.2117 25.4965 18.8572 25.4965 18.42C25.4965 17.9828 25.1425 17.6284 24.7057 17.6284C24.269 17.6284 23.915 17.9828 23.915 18.42C23.915 18.8572 24.269 19.2117 24.7057 19.2117Z" fill="white"/>
<path d="M12.6899 16.2189H12.0715V15.5998C12.0755 15.4934 12.058 15.3873 12.0201 15.2879C11.9822 15.1884 11.9246 15.0976 11.8508 15.021C11.7771 14.9443 11.6886 14.8833 11.5907 14.8416C11.4929 14.8 11.3876 14.7785 11.2813 14.7785C11.175 14.7785 11.0697 14.8 10.9719 14.8416C10.874 14.8833 10.7855 14.9443 10.7118 15.021C10.638 15.0976 10.5804 15.1884 10.5425 15.2879C10.5046 15.3873 10.4871 15.4934 10.4911 15.5998V16.2189H9.87274C9.66829 16.2265 9.47478 16.3132 9.33285 16.4608C9.19093 16.6083 9.11163 16.8051 9.11163 17.0099C9.11163 17.2147 9.19093 17.4116 9.33285 17.5591C9.47478 17.7066 9.66829 17.7933 9.87274 17.801H10.4911V18.42C10.4988 18.6247 10.5854 18.8184 10.7327 18.9605C10.8801 19.1026 11.0767 19.182 11.2813 19.182C11.4859 19.182 11.6825 19.1026 11.8299 18.9605C11.9772 18.8184 12.0638 18.6247 12.0715 18.42V17.801H12.6899C12.7961 17.805 12.9021 17.7875 13.0015 17.7495C13.1008 17.7116 13.1915 17.6539 13.2681 17.5801C13.3447 17.5062 13.4056 17.4177 13.4472 17.3197C13.4888 17.2217 13.5103 17.1164 13.5103 17.0099C13.5103 16.9035 13.4888 16.7981 13.4472 16.7001C13.4056 16.6022 13.3447 16.5136 13.2681 16.4398C13.1915 16.3659 13.1008 16.3083 13.0015 16.2703C12.9021 16.2324 12.7961 16.2149 12.6899 16.2189Z" fill="white"/>
</g>
<defs>
<clipPath id="clip0_288_852">
<rect width="188" height="46" fill="white"/>
</clipPath>
</defs>
</svg>
