<svg width="32" height="32" viewBox="0 0 32 32" fill="none" xmlns="http://www.w3.org/2000/svg">
<g filter="url(#filter0_d_1636_11405)">
<path d="M11.4041 15.1814L6.69513 20.0511C6.57175 20.1787 6.36518 20.1718 6.2505 20.0364L3.52897 16.8215C3.34842 16.6083 3 16.7359 3 17.0154V26.7C3 26.8657 3.13431 27 3.3 27H12.9506C13.2292 27 13.3573 26.6534 13.1458 26.4721L9.91758 23.7073C9.78332 23.5923 9.77708 23.3867 9.90412 23.2638L14.5539 18.7646C14.6744 18.6481 14.676 18.4554 14.5575 18.3369L11.4041 15.1836C11.4035 15.183 11.4035 15.182 11.4041 15.1814ZM18.2378 1C18.2374 1 18.2372 1.00048 18.2375 1.00073L22.082 4.29364C22.2163 4.40864 22.2225 4.6142 22.0955 4.73711L17.4448 9.23629C17.3243 9.35284 17.3227 9.54551 17.4413 9.66404L20.3802 12.6028C20.4987 12.7213 20.6914 12.7197 20.8079 12.5992L25.3049 7.94892C25.4283 7.82134 25.6348 7.82817 25.7495 7.96363L28.4712 11.1785C28.6518 11.3918 29.0002 11.2641 29.0002 10.9847V1.3C29.0002 1.13432 28.8659 1 28.7002 1H18.2378Z" fill="#FFC440"/>
<path d="M11.7577 14.83C11.9509 15.0233 11.952 15.335 11.7628 15.5298L11.7636 15.5289L11.4081 15.1796L11.0503 14.8281C11.048 14.8303 11.0458 14.8326 11.0436 14.8349L6.48933 19.5446L3.91059 16.4985L3.53074 16.82L3.91059 16.4985C3.42913 15.9297 2.5 16.2702 2.5 17.0154V26.7C2.5 27.1418 2.85817 27.5 3.3 27.5H12.9506C13.6935 27.5 14.0352 26.5756 13.471 26.0924L10.4097 23.4704L14.9016 19.124C15.2228 18.8131 15.2271 18.2994 14.911 17.9834L11.7577 14.83ZM11.7577 14.83L11.7574 14.8298L11.7577 14.83ZM18.2378 0.5C17.7736 0.5 17.5589 1.07786 17.9122 1.38047C17.9123 1.3805 17.9123 1.38053 17.9123 1.38057L21.5899 4.53049L17.0972 8.87693C16.7759 9.18774 16.7716 9.70152 17.0877 10.0176L20.0266 12.9563C20.3427 13.2724 20.8566 13.2681 21.1674 12.9467L20.8079 12.5992L21.1674 12.9467L25.5107 8.45536L28.0896 11.5016C28.5711 12.0703 29.5002 11.7298 29.5002 10.9847V1.3C29.5002 0.858171 29.142 0.5 28.7002 0.5H18.2378ZM21.7478 4.37775L21.7476 4.37793L21.7478 4.37775Z" stroke="#898B80"/>
</g>
<defs>
<filter id="filter0_d_1636_11405" x="2" y="0" width="28.0002" height="30" filterUnits="userSpaceOnUse" color-interpolation-filters="sRGB">
<feFlood flood-opacity="0" result="BackgroundImageFix"/>
<feColorMatrix in="SourceAlpha" type="matrix" values="0 0 0 0 0 0 0 0 0 0 0 0 0 0 0 0 0 0 127 0" result="hardAlpha"/>
<feOffset dy="2"/>
<feComposite in2="hardAlpha" operator="out"/>
<feColorMatrix type="matrix" values="0 0 0 0 0 0 0 0 0 0 0 0 0 0 0 0 0 0 0.64 0"/>
<feBlend mode="normal" in2="BackgroundImageFix" result="effect1_dropShadow_1636_11405"/>
<feBlend mode="normal" in="SourceGraphic" in2="effect1_dropShadow_1636_11405" result="shape"/>
</filter>
</defs>
</svg>
